<svg width="50" height="50" viewBox="0 0 50 50" fill="none" xmlns="http://www.w3.org/2000/svg">
<rect width="50" height="50" rx="5" fill="#1ABC9C"/>
<rect x="10.5" y="10.5" width="31" height="31" rx="4.5" fill="#1ABC9C" stroke="white"/>
<path d="M24.0664 28.7617C24.0664 27.668 24.1992 26.7969 24.4648 26.1484C24.7305 25.5 25.2148 24.8633 25.918 24.2383C26.6289 23.6055 27.1016 23.0938 27.3359 22.7031C27.5703 22.3047 27.6875 21.8867 27.6875 21.4492C27.6875 20.1289 27.0781 19.4688 25.8594 19.4688C25.2812 19.4688 24.8164 19.6484 24.4648 20.0078C24.1211 20.3594 23.9414 20.8477 23.9258 21.4727H20.5273C20.543 19.9805 21.0234 18.8125 21.9688 17.9688C22.9219 17.125 24.2188 16.7031 25.8594 16.7031C27.5156 16.7031 28.8008 17.1055 29.7148 17.9102C30.6289 18.707 31.0859 19.8359 31.0859 21.2969C31.0859 21.9609 30.9375 22.5898 30.6406 23.1836C30.3438 23.7695 29.8242 24.4219 29.082 25.1406L28.1328 26.043C27.5391 26.6133 27.1992 27.2812 27.1133 28.0469L27.0664 28.7617H24.0664ZM23.7266 32.3594C23.7266 31.8359 23.9023 31.4062 24.2539 31.0703C24.6133 30.7266 25.0703 30.5547 25.625 30.5547C26.1797 30.5547 26.6328 30.7266 26.9844 31.0703C27.3438 31.4062 27.5234 31.8359 27.5234 32.3594C27.5234 32.875 27.3477 33.3008 26.9961 33.6367C26.6523 33.9727 26.1953 34.1406 25.625 34.1406C25.0547 34.1406 24.5938 33.9727 24.2422 33.6367C23.8984 33.3008 23.7266 32.875 23.7266 32.3594Z" fill="white"/>
</svg>
