<svg width="150" height="50" viewBox="0 0 150 50" fill="none" xmlns="http://www.w3.org/2000/svg">
<path d="M44.0477 23.8095H40.4762V14.2857C40.4762 11.6548 38.3453 9.52377 35.7143 9.52377H26.1905V5.95234C26.1905 2.66663 23.5238 0 20.2381 0C16.9523 0 14.2857 2.66663 14.2857 5.95234V9.52377H4.76194C2.13103 9.52377 0.0238839 11.6547 0.0238839 14.2857L0.011942 23.3334H3.57143C7.11908 23.3334 10 26.2143 10 29.7619C10 33.3096 7.11908 36.1905 3.57143 36.1905H0.011942L0 45.2381C0 47.8691 2.13092 50 4.76194 50H13.8096V46.4286C13.8096 42.8809 16.6905 40 20.2382 40C23.7858 40 26.6667 42.8809 26.6667 46.4286V50H35.7143C38.3452 50 40.4762 47.8691 40.4762 45.2381V35.7143H44.0477C47.3334 35.7143 50 33.0477 50 29.7619C50 26.4762 47.3334 23.8095 44.0477 23.8095Z" fill="#1ABC9C"/>
<path d="M98.5352 3.6087H92.1188C92.1421 2.89803 92.1551 2.18315 92.1551 1.46484C92.1551 0.655746 91.4989 0 90.6902 0H59.3102C58.5011 0 57.8453 0.655746 57.8453 1.46484C57.8453 2.18315 57.8579 2.89803 57.8812 3.6087H51.4648C50.6557 3.6087 50 4.26445 50 5.07355C50 11.6371 51.7155 17.8295 54.8302 22.5105C57.909 27.1381 62.0102 29.7924 66.4402 30.0507C67.4446 31.1436 68.5066 32.0347 69.6125 32.7145V39.225H67.1551C64.1842 39.225 61.7676 41.642 61.7676 44.6125V47.0699H61.6634C60.8543 47.0699 60.1986 47.7261 60.1986 48.5348C60.1986 49.3439 60.8543 49.9996 61.6634 49.9996H88.3366C89.1457 49.9996 89.8014 49.3439 89.8014 48.5348C89.8014 47.7261 89.1457 47.0699 88.3366 47.0699H88.2324V44.6125C88.2324 41.642 85.8154 39.225 82.8449 39.225H80.3875V32.7145C81.4934 32.0347 82.555 31.1436 83.5594 30.0507C87.9898 29.7924 92.0906 27.1381 95.1698 22.5105C98.2845 17.8295 100 11.6371 100 5.07355C100 4.26445 99.3439 3.6087 98.5352 3.6087ZM57.2693 20.8878C54.7001 17.0265 53.1906 11.977 52.9606 6.53839H58.0448C58.5732 13.224 60.1425 19.4035 62.5954 24.3092C62.986 25.0904 63.3945 25.8282 63.8184 26.5236C61.3819 25.6035 59.127 23.6801 57.2693 20.8878ZM92.7307 20.8878C90.873 23.6801 88.6181 25.6035 86.1816 26.5236C86.6058 25.8282 87.014 25.0904 87.4046 24.3092C89.8575 19.4035 91.4265 13.224 91.9552 6.53839H97.0394C96.8094 11.977 95.2999 17.0265 92.7307 20.8878Z" fill="#1ABC9C"/>
<g clip-path="url(#clip0)">
<path d="M116.813 28.1926C115.033 28.1926 113.554 29.6338 113.554 31.4516C113.554 33.2487 115.016 34.7106 116.813 34.7106C118.61 34.7106 120.072 33.2487 120.072 31.4516C120.072 29.6545 118.61 28.1926 116.813 28.1926Z" fill="#1ABC9C"/>
<path d="M133.108 28.1926C131.329 28.1926 129.849 29.6338 129.849 31.4516C129.849 33.2487 131.311 34.7106 133.108 34.7106C134.905 34.7106 136.367 33.2487 136.367 31.4516C136.367 29.6545 134.905 28.1926 133.108 28.1926Z" fill="#1ABC9C"/>
<path d="M143.92 20.1433C143.147 16.2266 144.802 13.2016 146.563 10.4385C146.973 9.79347 146.899 8.95216 146.38 8.39005C142.139 3.79201 143.012 4.75188 139.235 0.557643C138.641 -0.101633 137.635 -0.188157 136.939 0.363015C134.388 2.37747 129.685 3.07073 125.998 0.394753C125.408 -0.0337623 124.608 -0.0337623 124.018 0.394753C120.328 3.0719 115.63 2.37493 113.079 0.362917C112.382 -0.188157 111.376 -0.101731 110.783 0.557546C106.874 4.89494 108.043 3.60793 103.636 8.39025C103.117 8.95255 103.043 9.79328 103.453 10.4383C105.603 13.8097 106.795 16.6088 106.099 20.1361C105.735 21.7095 100.274 31.3726 103.84 38.9145C105.429 42.2774 108.544 44.6856 113.101 46.0727C117.088 47.2865 121.329 47.5825 123.89 49.5869C124.213 49.8427 124.596 50.0002 125.018 50.0002C125.389 50.0002 125.76 49.8776 126.069 49.632C128.631 47.5884 132.871 47.2915 136.878 46.0802C141.433 44.7027 144.552 42.2977 146.148 38.9316C149.73 31.3715 144.287 21.7007 143.92 20.1433ZM116.813 37.9698C113.218 37.9698 110.295 35.0461 110.295 31.4518C110.295 28.6016 111.686 27.4078 117.377 19.2487C117.893 18.5104 118.908 18.3312 119.646 18.8445C120.385 19.3596 120.565 20.3754 120.051 21.1138L117.366 24.962C120.702 25.2443 123.331 28.0445 123.331 31.4519C123.331 35.0461 120.407 37.9698 116.813 37.9698ZM133.108 37.9698C129.513 37.9698 126.59 35.0461 126.59 31.4518C126.59 28.6016 127.981 27.4078 133.672 19.2487C134.188 18.5104 135.203 18.3312 135.941 18.8445C136.68 19.3596 136.86 20.3754 136.345 21.1138L133.661 24.962C136.997 25.2443 139.626 28.0445 139.626 31.4519C139.626 35.0461 136.702 37.9698 133.108 37.9698ZM141.872 11.9225H108.144C107.791 11.1718 107.4 10.4421 106.981 9.73546C110.685 5.71809 109.583 6.91652 112.315 3.89221C115.711 5.80334 120.745 6.28547 125.008 3.7718C129.271 6.28605 134.307 5.80275 137.702 3.89221C140.512 7.00597 139.489 5.88937 143.035 9.73546C142.616 10.442 142.225 11.1717 141.872 11.9225Z" fill="#1ABC9C"/>
</g>
<defs>
<clipPath id="clip0">
<rect x="100" width="50" height="50" fill="white"/>
</clipPath>
</defs>
</svg>
