<?xml version="1.0" encoding="UTF-8" standalone="no"?>
<svg
   xmlns:dc="http://purl.org/dc/elements/1.1/"
   xmlns:cc="http://creativecommons.org/ns#"
   xmlns:rdf="http://www.w3.org/1999/02/22-rdf-syntax-ns#"
   xmlns:svg="http://www.w3.org/2000/svg"
   xmlns="http://www.w3.org/2000/svg"
   xmlns:sodipodi="http://sodipodi.sourceforge.net/DTD/sodipodi-0.dtd"
   xmlns:inkscape="http://www.inkscape.org/namespaces/inkscape"
   inkscape:version="1.0beta2 (unknown)"
   sodipodi:docname="search.svg"
   xml:space="preserve"
   style="enable-background:new 0 0 512 512;"
   viewBox="0 0 512 512"
   y="0px"
   x="0px"
   id="Capa_1"
   version="1.1"><metadata
   id="metadata49"><rdf:RDF><cc:Work
       rdf:about=""><dc:format>image/svg+xml</dc:format><dc:type
         rdf:resource="http://purl.org/dc/dcmitype/StillImage" /></cc:Work></rdf:RDF></metadata><defs
   id="defs47" /><sodipodi:namedview
   inkscape:current-layer="Capa_1"
   inkscape:window-maximized="1"
   inkscape:window-y="0"
   inkscape:window-x="0"
   inkscape:cy="256"
   inkscape:cx="-114.98305"
   inkscape:zoom="0.4609375"
   showgrid="false"
   id="namedview45"
   inkscape:window-height="995"
   inkscape:window-width="1920"
   inkscape:pageshadow="2"
   inkscape:pageopacity="0"
   guidetolerance="10"
   gridtolerance="10"
   objecttolerance="10"
   borderopacity="1"
   inkscape:document-rotation="0"
   bordercolor="#666666"
   pagecolor="#ffffff" />
<g
   style="fill:#cccccc;fill-opacity:1"
   id="g6">
	<g
   style="fill:#cccccc;fill-opacity:1"
   id="g4">
		<path
   style="fill:#cccccc;fill-opacity:1"
   id="path2"
   d="M225.474,0C101.151,0,0,101.151,0,225.474c0,124.33,101.151,225.474,225.474,225.474    c124.33,0,225.474-101.144,225.474-225.474C450.948,101.151,349.804,0,225.474,0z M225.474,409.323    c-101.373,0-183.848-82.475-183.848-183.848S124.101,41.626,225.474,41.626s183.848,82.475,183.848,183.848    S326.847,409.323,225.474,409.323z" />
	</g>
</g>
<g
   style="fill:#cccccc;fill-opacity:1"
   id="g12">
	<g
   style="fill:#cccccc;fill-opacity:1"
   id="g10">
		<path
   style="fill:#cccccc;fill-opacity:1"
   id="path8"
   d="M505.902,476.472L386.574,357.144c-8.131-8.131-21.299-8.131-29.43,0c-8.131,8.124-8.131,21.306,0,29.43l119.328,119.328    c4.065,4.065,9.387,6.098,14.715,6.098c5.321,0,10.649-2.033,14.715-6.098C514.033,497.778,514.033,484.596,505.902,476.472z" />
	</g>
</g>
<g
   id="g14">
</g>
<g
   id="g16">
</g>
<g
   id="g18">
</g>
<g
   id="g20">
</g>
<g
   id="g22">
</g>
<g
   id="g24">
</g>
<g
   id="g26">
</g>
<g
   id="g28">
</g>
<g
   id="g30">
</g>
<g
   id="g32">
</g>
<g
   id="g34">
</g>
<g
   id="g36">
</g>
<g
   id="g38">
</g>
<g
   id="g40">
</g>
<g
   id="g42">
</g>
</svg>
